<svg width="215" height="109" viewBox="0 0 215 109" fill="none" xmlns="http://www.w3.org/2000/svg">
<g clip-path="url(#clip0_21_159)">
<path d="M0 54.5V109H107.5H215V54.5V1.49012e-08H107.5H0V54.5ZM29.6938 10.1265C30.6743 10.7594 31.5147 11.8845 31.5147 12.6581C31.5147 13.8535 31.0244 14.0645 28.3632 14.0645C26.0521 14.0645 25.2117 13.7832 25.2117 13.0097C25.2117 10.6187 19.4691 9.98581 18.0684 12.1658C17.7883 12.6581 17.5081 14.9084 17.5081 17.229C17.5081 22.1516 17.9283 22.9252 20.4495 23.5581C22.7606 24.1206 25.2117 22.8548 25.2117 21.0968C25.2117 19.9013 25.702 19.6903 28.3632 19.6903C31.2345 19.6903 31.5147 19.831 31.5147 21.4484C31.5147 24.4723 28.6433 25.6677 21.3599 25.6677C16.4577 25.6677 14.5668 25.3865 13.0961 24.4019C11.2752 23.2065 11.2052 22.9252 11.2052 17.2994C11.2052 10.9703 11.5554 10.2671 15.1971 9.14194C18.3485 8.0871 27.5928 8.72 29.6938 10.1265ZM56.0261 9.49355C56.0261 10.2671 54.7655 10.5484 50.2834 10.689L44.4707 10.9V13.3613V15.8226L49.2329 16.0335C52.8046 16.1742 53.9251 16.4555 53.9251 17.229C53.9251 18.0729 52.8746 18.2839 48.9528 18.2839H44.0505L44.2606 20.8858L44.4707 23.5581L50.2834 23.769C54.7655 23.9097 56.0261 24.191 56.0261 24.9645C56.0261 25.8084 54.4153 26.0194 46.9218 26.0194H37.8176V17.229V8.43871H46.9218C54.4153 8.43871 56.0261 8.64968 56.0261 9.49355ZM80.0472 10.0561C81.5179 10.9703 81.9381 11.8142 81.9381 13.7129C81.9381 15.7523 81.5879 16.3852 80.0472 17.0181C78.9267 17.5103 77.9463 17.9323 77.8062 18.0729C77.6661 18.1432 78.5765 19.5497 79.9072 21.2374C81.1678 22.9252 82.4984 24.6832 82.8485 25.1052C83.3388 25.8084 82.7085 26.0194 80.0472 26.0194C76.6156 26.0194 76.5456 25.949 73.8844 22.1516C71.8534 19.1981 70.873 18.2839 69.7524 18.4245C68.4919 18.6355 68.2818 19.1981 68.0717 22.2923L67.8616 26.0194H64.7101H61.6287V17.1587V8.29806L69.8925 8.50903C76.3355 8.72 78.5765 9.07161 80.0472 10.0561ZM105.049 9.42323C105.049 10.1968 104.068 10.5484 101.757 10.689L98.3958 10.9L98.1857 18.4245L97.9756 26.0194H94.8941H91.7427V18.2839V10.5484H88.241C85.5798 10.5484 84.7394 10.2671 84.7394 9.49355C84.7394 8.57935 86.3502 8.43871 94.8941 8.43871C103.298 8.43871 105.049 8.64968 105.049 9.42323ZM116.254 17.229V26.0194H113.103H109.951V17.229V8.43871H113.103H116.254V17.229ZM141.466 9.49355C141.466 10.2671 140.205 10.5484 135.723 10.689L129.91 10.9V13.3613V15.8226L134.673 16.0335C138.244 16.1742 139.365 16.4555 139.365 17.229C139.365 18.0729 138.314 18.2839 134.463 18.2839H129.56V22.1516V26.0194H126.409H123.257V17.229V8.43871H132.362C139.855 8.43871 141.466 8.64968 141.466 9.49355ZM151.971 17.229V26.0194H148.819H145.668V17.229V8.43871H148.819H151.971V17.229ZM177.883 9.49355C177.883 10.2671 176.622 10.5484 172.14 10.689L166.327 10.9V13.3613V15.8226L171.09 16.0335C174.661 16.1742 175.782 16.4555 175.782 17.229C175.782 18.0729 174.731 18.2839 170.809 18.2839H165.907L166.117 20.8858L166.327 23.5581L172.14 23.769C176.622 23.9097 177.883 24.191 177.883 24.9645C177.883 25.8084 176.272 26.0194 168.779 26.0194H159.674V17.229V8.43871H168.779C176.272 8.43871 177.883 8.64968 177.883 9.49355ZM199.243 9.14194C203.024 9.98581 203.795 11.3219 203.795 17.229C203.795 20.1826 203.445 22.7142 202.884 23.4877C201.624 25.1755 197.562 25.949 189.998 26.0194H183.485V17.229V8.43871H189.998C193.5 8.43871 197.702 8.79032 199.243 9.14194ZM214.3 69.6194V108.297H107.5H0.700326V69.6194V30.9419H107.5H214.3V69.6194Z" fill="#FFE3D8"/>
<path d="M68.4218 11.0406C68.1417 11.2516 67.9316 12.5174 67.9316 13.8535C67.9316 16.1039 68.0016 16.1742 70.943 16.1742C74.1645 16.1742 75.6352 15.26 75.6352 13.2206C75.6352 11.3219 69.8225 9.56387 68.4218 11.0406Z" fill="#FFE3D8"/>
<path d="M190.138 11.3923C189.928 11.9549 189.788 14.9084 189.928 18.0026L190.138 23.5581L193.22 23.4175C194.901 23.3471 196.581 22.8549 196.862 22.3626C197.632 21.2375 197.632 13.291 196.932 12.1658C196.651 11.6736 195.041 11.111 193.43 10.8297C191.189 10.4781 190.419 10.6188 190.138 11.3923Z" fill="#FFE3D8"/>
<path d="M26.4023 35.6535C25.4919 37.271 11.8355 62.6574 10.5749 65.189L9.10423 68.2129H16.2476H23.4609L24.6515 65.4L25.842 62.5871H34.1759H42.5098L43.7704 65.4L45.0309 68.2129H52.3143H59.6677L57.6368 64.4858C56.4462 62.5168 52.4544 55.0626 48.7427 47.96L41.8795 35.1613H34.316C30.114 35.1613 26.5423 35.3722 26.4023 35.6535Z" fill="#FFE3D8"/>
<path d="M60.9283 51.6871V68.2129H76.5456C85.2296 68.2129 93.2834 67.8613 94.7541 67.4393C102.668 65.2593 107.57 55.0626 104.909 46.1316C103.718 42.2639 98.5358 36.9193 94.8941 35.9348C93.2834 35.5129 85.5798 35.1613 76.5456 35.1613H60.9283V51.6871Z" fill="#FFE3D8"/>
<path d="M109.251 51.6871V68.2129H115.554H121.857V62.5871V56.9613H131.661H141.466V62.5871V68.2129H147.769H154.072V51.6871V35.1613H147.769H141.466V40.7871V46.4129H131.661H121.857V40.7871V35.1613H115.554H109.251V51.6871Z" fill="#FFE3D8"/>
<path d="M161.775 51.6871V68.2129H177.393C186.077 68.2129 194.13 67.8613 195.601 67.4393C203.515 65.2593 208.417 55.0626 205.756 46.1316C204.565 42.2639 199.383 36.9193 195.741 35.9348C194.13 35.5129 186.427 35.1613 177.393 35.1613H161.775V51.6871Z" fill="#FFE3D8"/>
<path d="M35.7166 86.0748C35.7166 93.2477 35.5065 95.0761 34.5961 95.9903C33.8958 96.6232 32.8453 96.9748 32.1449 96.8342C31.0945 96.5529 30.8143 96.8342 30.8143 98.1703C30.8143 99.6471 31.1645 99.858 33.2655 99.858C35.0163 99.858 36.3469 99.2955 37.4674 98.1C39.1482 96.4825 39.2182 96.0606 39.2182 86.8484V77.3548H37.4674H35.7166V86.0748Z" fill="#FFE3D8"/>
<path d="M43.4202 86.989C43.4202 92.3335 43.7003 97.0451 43.9805 97.4671C45.8013 100.28 51.1238 100.632 53.5749 98.1C55.2557 96.4826 55.3257 96.0606 55.3257 86.8484V77.3548H53.5749H51.8241V86.0748C51.8241 93.1071 51.614 95.0761 50.7036 95.92C49.373 97.2561 48.8827 97.3264 47.7622 96.2013C47.202 95.6387 46.9218 92.4039 46.9218 86.3561V77.3548H45.171H43.4202V86.989Z" fill="#FFE3D8"/>
<path d="M58.8274 88.6064V99.858H60.5782C62.1889 99.858 62.259 99.6471 62.4691 95.0761C62.7492 88.8174 64.1498 88.7471 66.1808 94.9355C67.5114 98.8735 67.9316 99.5064 69.5423 99.7174C71.7834 99.9987 71.8534 99.858 69.9625 94.3025C68.5619 90.2942 68.5619 89.8722 69.6124 88.6767C70.3127 87.9032 70.7329 86.1451 70.7329 83.8245C70.7329 78.9722 68.772 77.3548 62.9593 77.3548H58.8274V88.6064ZM65.9006 80.8709C67.4414 81.7148 67.7215 85.02 66.3909 86.3561C65.9006 86.8484 64.8502 87.2 63.9397 87.2C62.5391 87.2 62.329 86.8484 62.329 84.1761C62.329 80.0974 63.0993 79.3942 65.9006 80.8709Z" fill="#FFE3D8"/>
<path d="M74.9349 88.6064V99.858H76.6857H78.4365V88.6064V77.3548H76.6857H74.9349V88.6064Z" fill="#FFE3D8"/>
<path d="M83.0586 78.8316C81.728 79.8865 81.2378 80.9413 81.2378 82.6291C81.2378 85.02 82.5684 86.8484 87.4007 90.8568C89.7818 92.8258 90.272 94.9355 88.5912 96.342C87.2606 97.4671 85.4397 96.7639 84.9495 94.9355C84.7394 94.0213 83.9691 93.5291 82.9186 93.5291C80.4674 93.5291 80.6775 96.4826 83.1987 98.4516C84.6694 99.6471 85.7199 99.9284 88.031 99.6471C92.1629 99.2252 93.1433 98.1704 93.1433 94.3026C93.1433 91.2787 92.9332 90.8568 88.9414 87.1297C86 84.4575 84.8095 82.84 85.0896 82.0665C85.8599 80.2381 87.7508 79.9568 89.0814 81.5039C90.5521 83.4026 93.1433 83.4729 93.1433 81.6446C93.1433 79.6755 89.8518 77.3549 87.1906 77.3549C85.93 77.3549 84.1091 77.9878 83.0586 78.8316Z" fill="#FFE3D8"/>
<path d="M95.9446 88.6064V99.9987L100.567 99.7174C107.29 99.2954 107.85 98.3812 107.85 88.6064C107.85 78.8316 107.29 77.9174 100.567 77.4954L95.9446 77.2141V88.6064ZM103.228 81.2929C104.839 82.9103 104.839 94.3729 103.228 95.9903C102.598 96.6232 101.547 97.0451 100.917 96.9045C100.007 96.6935 99.7964 95.4277 99.5863 89.3799C99.5163 85.3012 99.5863 81.5741 99.7264 81.0819C100.217 79.8161 101.897 79.9567 103.228 81.2929Z" fill="#FFE3D8"/>
<path d="M112.052 88.6064V99.858H113.803H115.554V88.6064V77.3548H113.803H112.052V88.6064Z" fill="#FFE3D8"/>
<path d="M122.557 77.8472C120.176 78.691 119.756 80.3788 119.756 88.6065C119.756 97.9594 120.176 99.0846 124.308 99.6472C128.16 100.139 130.961 97.9594 130.961 94.5136C130.961 92.4039 130.751 92.1226 129.21 92.1226C127.809 92.1226 127.459 92.4743 127.459 93.8104C127.459 96.131 125.708 97.5375 124.308 96.342C123.537 95.6388 123.257 93.8807 123.257 88.6065C123.257 83.3323 123.537 81.5743 124.308 80.871C125.638 79.7459 127.459 81.082 127.459 83.051C127.459 84.0355 127.95 84.3872 129.21 84.3872C130.681 84.3872 130.961 84.0355 130.961 82.3478C130.961 78.8317 126.479 76.4407 122.557 77.8472Z" fill="#FFE3D8"/>
<path d="M133.762 78.6909C133.762 79.6755 134.322 80.1677 135.723 80.3084L137.614 80.5193L137.824 90.2238L138.034 99.858H139.715H141.466V90.0129V80.1677H143.567C145.178 80.1677 145.668 79.8864 145.668 78.7613C145.668 77.4955 145.178 77.3548 139.715 77.3548C134.322 77.3548 133.762 77.4955 133.762 78.6909Z" fill="#FFE3D8"/>
<path d="M147.769 88.6064V99.858H149.52H151.27V88.6064V77.3548H149.52H147.769V88.6064Z" fill="#FFE3D8"/>
<path d="M157.993 78.8316C156.243 80.238 156.173 80.449 156.173 88.6064C156.173 96.7638 156.243 96.9748 157.993 98.3813C160.375 100.28 163.876 100.28 166.257 98.3813C168.008 96.9748 168.078 96.7638 168.078 88.6064C168.078 80.449 168.008 80.238 166.257 78.8316C165.207 77.9877 163.386 77.3548 162.125 77.3548C160.865 77.3548 159.044 77.9877 157.993 78.8316ZM164.577 88.6064C164.577 94.4432 164.366 95.709 163.386 96.2716C162.616 96.6935 161.705 96.6935 160.935 96.2716C159.884 95.709 159.674 94.5838 159.674 88.6064C159.674 82.7697 159.884 81.5038 160.865 80.9413C161.635 80.5193 162.546 80.5193 163.316 80.9413C164.366 81.5038 164.577 82.629 164.577 88.6064Z" fill="#FFE3D8"/>
<path d="M172.28 88.5361V99.858H174.031C175.712 99.858 175.712 99.7877 175.922 92.6851L176.132 85.4419L178.653 92.4742C180.894 98.8032 181.384 99.5064 182.995 99.7174L184.886 99.9283V88.6767V77.3548H183.135C181.384 77.3548 181.384 77.4251 181.314 83.8245V90.3645L179.003 84.0354C176.832 78.058 176.552 77.7064 174.451 77.4954L172.28 77.2845V88.5361Z" fill="#FFE3D8"/>
</g>
<defs>
<clipPath id="clip0_21_159">
<rect width="215" height="109" fill="white"/>
</clipPath>
</defs>
</svg>
