<svg width="164" height="28" viewBox="0 0 164 28" fill="none" xmlns="http://www.w3.org/2000/svg">
<path d="M20.9044 20.412C20.9044 21.852 20.5324 23.064 19.7884 24.048C19.0444 25.008 18.0364 25.74 16.7644 26.244C15.5164 26.748 14.1484 27 12.6604 27H0.312438V1.44H13.9924C15.1924 1.44 16.2244 1.764 17.0884 2.412C17.9764 3.036 18.6484 3.852 19.1044 4.86C19.5844 5.844 19.8244 6.876 19.8244 7.956C19.8244 9.18 19.5124 10.344 18.8884 11.448C18.2644 12.552 17.3524 13.368 16.1524 13.896C17.6164 14.328 18.7684 15.108 19.6084 16.236C20.4724 17.364 20.9044 18.756 20.9044 20.412ZM15.9004 19.476C15.9004 18.828 15.7684 18.252 15.5044 17.748C15.2404 17.22 14.8804 16.812 14.4244 16.524C13.9924 16.212 13.4884 16.056 12.9124 16.056H5.28044V22.788H12.6604C13.2604 22.788 13.8004 22.644 14.2804 22.356C14.7844 22.044 15.1804 21.636 15.4684 21.132C15.7564 20.628 15.9004 20.076 15.9004 19.476ZM5.28044 5.688V12.132H11.9044C12.4564 12.132 12.9604 12 13.4164 11.736C13.8724 11.472 14.2324 11.1 14.4964 10.62C14.7844 10.14 14.9284 9.564 14.9284 8.892C14.9284 8.244 14.7964 7.68 14.5324 7.2C14.2924 6.72 13.9564 6.348 13.5244 6.084C13.1164 5.82 12.6484 5.688 12.1204 5.688H5.28044ZM24.7812 27V1.44H35.6172C36.7932 1.44 37.8732 1.68 38.8572 2.16C39.8412 2.64 40.6932 3.288 41.4132 4.104C42.1572 4.92 42.7332 5.832 43.1412 6.84C43.5492 7.848 43.7532 8.88 43.7532 9.936C43.7532 11.376 43.4172 12.744 42.7452 14.04C42.0732 15.336 41.1492 16.392 39.9732 17.208C38.7972 18.024 37.4052 18.432 35.7972 18.432H29.7492V27H24.7812ZM29.7492 14.076H35.5092C36.1092 14.076 36.6492 13.908 37.1292 13.572C37.6092 13.236 37.9932 12.756 38.2812 12.132C38.5692 11.484 38.7132 10.752 38.7132 9.936C38.7132 9.048 38.5452 8.292 38.2092 7.668C37.8972 7.044 37.4772 6.576 36.9492 6.264C36.4452 5.952 35.8932 5.796 35.2932 5.796H29.7492V14.076ZM47.2109 27V1.44H56.4989C59.2829 1.44 61.6109 2.016 63.4829 3.168C65.3549 4.296 66.7589 5.832 67.6949 7.776C68.6309 9.696 69.0989 11.832 69.0989 14.184C69.0989 16.776 68.5829 19.032 67.5509 20.952C66.5189 22.872 65.0549 24.36 63.1589 25.416C61.2869 26.472 59.0669 27 56.4989 27H47.2109ZM64.0949 14.184C64.0949 12.528 63.7949 11.076 63.1949 9.828C62.5949 8.556 61.7309 7.572 60.6029 6.876C59.4749 6.156 58.1069 5.796 56.4989 5.796H52.1789V22.644H56.4989C58.1309 22.644 59.5109 22.284 60.6389 21.564C61.7669 20.82 62.6189 19.812 63.1949 18.54C63.7949 17.244 64.0949 15.792 64.0949 14.184ZM81.6288 27V1.44H98.8008V5.796H86.5968V12.384H96.7488V16.416H86.5968V27H81.6288ZM109.42 27.36C107.884 27.36 106.504 27.108 105.28 26.604C104.056 26.076 103.012 25.356 102.148 24.444C101.308 23.532 100.66 22.488 100.204 21.312C99.7477 20.136 99.5197 18.9 99.5197 17.604C99.5197 16.284 99.7477 15.036 100.204 13.86C100.66 12.684 101.308 11.64 102.148 10.728C103.012 9.816 104.056 9.108 105.28 8.604C106.504 8.076 107.884 7.812 109.42 7.812C110.956 7.812 112.324 8.076 113.524 8.604C114.748 9.108 115.792 9.816 116.656 10.728C117.52 11.64 118.168 12.684 118.6 13.86C119.056 15.036 119.284 16.284 119.284 17.604C119.284 18.9 119.056 20.136 118.6 21.312C118.168 22.488 117.52 23.532 116.656 24.444C115.816 25.356 114.784 26.076 113.56 26.604C112.336 27.108 110.956 27.36 109.42 27.36ZM104.488 17.604C104.488 18.708 104.704 19.692 105.136 20.556C105.568 21.396 106.156 22.056 106.9 22.536C107.644 23.016 108.484 23.256 109.42 23.256C110.332 23.256 111.16 23.016 111.904 22.536C112.648 22.032 113.236 21.36 113.668 20.52C114.124 19.656 114.352 18.672 114.352 17.568C114.352 16.488 114.124 15.516 113.668 14.652C113.236 13.788 112.648 13.116 111.904 12.636C111.16 12.156 110.332 11.916 109.42 11.916C108.484 11.916 107.644 12.168 106.9 12.672C106.156 13.152 105.568 13.824 105.136 14.688C104.704 15.528 104.488 16.5 104.488 17.604ZM131.252 27.36C129.716 27.36 128.336 27.108 127.112 26.604C125.888 26.076 124.844 25.356 123.98 24.444C123.14 23.532 122.492 22.488 122.036 21.312C121.58 20.136 121.352 18.9 121.352 17.604C121.352 16.284 121.58 15.036 122.036 13.86C122.492 12.684 123.14 11.64 123.98 10.728C124.844 9.816 125.888 9.108 127.112 8.604C128.336 8.076 129.716 7.812 131.252 7.812C132.788 7.812 134.156 8.076 135.356 8.604C136.58 9.108 137.624 9.816 138.488 10.728C139.352 11.64 140 12.684 140.432 13.86C140.888 15.036 141.116 16.284 141.116 17.604C141.116 18.9 140.888 20.136 140.432 21.312C140 22.488 139.352 23.532 138.488 24.444C137.648 25.356 136.616 26.076 135.392 26.604C134.168 27.108 132.788 27.36 131.252 27.36ZM126.32 17.604C126.32 18.708 126.536 19.692 126.968 20.556C127.4 21.396 127.988 22.056 128.732 22.536C129.476 23.016 130.316 23.256 131.252 23.256C132.164 23.256 132.992 23.016 133.736 22.536C134.48 22.032 135.068 21.36 135.5 20.52C135.956 19.656 136.184 18.672 136.184 17.568C136.184 16.488 135.956 15.516 135.5 14.652C135.068 13.788 134.48 13.116 133.736 12.636C132.992 12.156 132.164 11.916 131.252 11.916C130.316 11.916 129.476 12.168 128.732 12.672C127.988 13.152 127.4 13.824 126.968 14.688C126.536 15.528 126.32 16.5 126.32 17.604ZM143.22 17.568C143.22 15.744 143.58 14.1 144.3 12.636C145.02 11.148 146.016 9.972 147.288 9.108C148.56 8.244 150.012 7.812 151.644 7.812C153.036 7.812 154.284 8.16 155.388 8.856C156.516 9.528 157.392 10.392 158.016 11.448V0.719999H162.84V21.6C162.84 22.104 162.924 22.464 163.092 22.68C163.26 22.896 163.548 23.028 163.956 23.076V27C163.116 27.168 162.432 27.252 161.904 27.252C161.04 27.252 160.32 27.036 159.744 26.604C159.192 26.172 158.88 25.608 158.808 24.912L158.736 23.724C158.04 24.9 157.092 25.8 155.892 26.424C154.716 27.048 153.48 27.36 152.184 27.36C150.888 27.36 149.688 27.108 148.584 26.604C147.504 26.1 146.556 25.404 145.74 24.516C144.948 23.628 144.324 22.596 143.868 21.42C143.436 20.22 143.22 18.936 143.22 17.568ZM158.016 20.088V15.588C157.776 14.892 157.392 14.268 156.864 13.716C156.336 13.164 155.748 12.732 155.1 12.42C154.452 12.084 153.804 11.916 153.156 11.916C152.412 11.916 151.74 12.072 151.14 12.384C150.54 12.696 150.012 13.116 149.556 13.644C149.124 14.172 148.788 14.784 148.548 15.48C148.332 16.176 148.224 16.908 148.224 17.676C148.224 18.444 148.344 19.176 148.584 19.872C148.848 20.544 149.22 21.132 149.7 21.636C150.18 22.14 150.732 22.536 151.356 22.824C152.004 23.112 152.7 23.256 153.444 23.256C153.9 23.256 154.356 23.184 154.812 23.04C155.292 22.872 155.736 22.656 156.144 22.392C156.576 22.104 156.948 21.768 157.26 21.384C157.596 20.976 157.848 20.544 158.016 20.088Z" fill="white"/>
</svg>
